<svg xmlns="http://www.w3.org/2000/svg" viewBox="0 0 1600 900" preserveAspectRatio="xMidYMid slice">
  <defs>
    <linearGradient id="sky" x1="0" y1="0" x2="0" y2="1">
      <stop offset="0" stop-color="#a9d0e2" stop-opacity=".96"/>
      <stop offset=".55" stop-color="#d9e7e9" stop-opacity=".82"/>
      <stop offset="1" stop-color="#eef0e6" stop-opacity=".48"/>
    </linearGradient>
    <radialGradient id="sun" cx="70%" cy="22%" r="42%">
      <stop offset="0" stop-color="#fff7d3" stop-opacity=".82"/>
      <stop offset=".3" stop-color="#fff2c6" stop-opacity=".24"/>
      <stop offset="1" stop-color="#fff2c6" stop-opacity="0"/>
    </radialGradient>
    <linearGradient id="room" x1="1" y1="0" x2=".15" y2="1">
      <stop offset="0" stop-color="#e8f1e8" stop-opacity=".19"/>
      <stop offset=".45" stop-color="#d6e3df" stop-opacity=".07"/>
      <stop offset="1" stop-color="#67859b" stop-opacity=".03"/>
    </linearGradient>
    <clipPath id="window"><rect x="365" y="42" width="890" height="595" rx="8"/></clipPath>
  </defs>
  <g clip-path="url(#window)">
    <rect x="350" y="25" width="930" height="635" fill="url(#sky)"/>
    <rect x="350" y="25" width="930" height="635" fill="url(#sun)"/>
    <g fill="#8097a3" opacity=".48">
      <rect x="380" y="360" width="105" height="270"/><rect x="495" y="320" width="90" height="310"/>
      <rect x="600" y="390" width="118" height="240"/><rect x="730" y="300" width="84" height="330"/>
      <rect x="825" y="345" width="132" height="285"/><rect x="970" y="280" width="76" height="350"/>
      <rect x="1058" y="375" width="165" height="255"/>
    </g>
    <g fill="#dce6e7" opacity=".32">
      <rect x="400" y="390" width="58" height="8"/><rect x="520" y="352" width="42" height="8"/><rect x="750" y="330" width="42" height="8"/>
      <rect x="850" y="380" width="78" height="8"/><rect x="1082" y="410" width="105" height="8"/>
    </g>
    <rect x="350" y="540" width="930" height="125" fill="#68869a" opacity=".1"/>
  </g>
  <rect width="1600" height="900" fill="url(#room)"/>
  <path d="M1270 0 L1530 0 L910 900 L760 900 Z" fill="#fff3cd" opacity=".025"/>
</svg>
